<svg width="216" height="216" viewBox="0 0 216 216" fill="none" xmlns="http://www.w3.org/2000/svg">
<path d="M188.53 35.4578L155.285 68.8324C165.25 80.564 170.445 95.6099 169.843 110.99C169.241 126.371 162.885 140.964 152.034 151.881C141.183 162.798 126.627 169.242 111.251 169.936C95.8742 170.631 80.7974 165.526 69.006 155.632L35.7616 188.79C56.5298 206.716 83.3178 216.109 110.733 215.078C138.148 214.047 164.155 202.669 183.519 183.234C202.882 163.799 214.164 137.751 215.094 110.332C216.024 82.9129 206.532 56.1598 188.53 35.4578Z" fill="#379ABA"/>
<path d="M26.6257 179.93L60.1701 146.857C50.3119 135.036 45.2524 119.944 45.9934 104.569C46.7345 89.1949 53.222 74.6593 64.1713 63.8411C75.1206 53.0228 89.7333 46.7107 105.116 46.1549C120.498 45.599 135.528 50.8399 147.229 60.8396L180.772 27.9836C160.166 9.87079 133.464 0.236294 106.041 1.01954C78.6175 1.80276 52.5088 12.9456 32.9707 32.2049C13.4326 51.4642 1.91572 77.41 0.738436 104.819C-0.438846 132.229 8.81092 159.066 26.6257 179.93Z" fill="#C1C1C1"/>
</svg>
