<svg width="103" height="103" viewBox="0 0 103 103" fill="none" xmlns="http://www.w3.org/2000/svg">
<g clip-path="url(#clip0_1_437)">
<path d="M51.5 0C79.9221 0 102.963 23.0407 102.963 51.4626C102.963 77.292 83.9338 98.6771 59.1299 102.363L0.0575027 50.0024C0.830788 22.2558 23.5663 0 51.5 0Z" fill="#71E2F0"/>
<path d="M0.0373688 51.5371C0.0373688 51.0239 0.0469894 50.513 0.0619812 50.0033L34.6731 15.3925L68.3938 49.1133L53.405 64.1023L80.7686 80.806L59.14 102.435C56.6469 102.806 54.0962 103 51.5 103C23.0781 103 0.0373688 79.9593 0.0373688 51.5371Z" fill="#38C6D9"/>
<path d="M51.5333 8.40899C38.364 8.40899 27.6894 19.0837 27.6894 32.253C27.6894 45.4223 38.364 56.097 51.5333 56.097L59.8996 32.253L51.5333 8.40899Z" fill="#366796"/>
<path d="M51.5333 8.40899V56.097C64.7026 56.097 75.3773 45.4223 75.3773 32.253C75.3773 19.0837 64.7026 8.40899 51.5333 8.40899Z" fill="#5488A8"/>
<path d="M30.5346 60.572C24.8177 63.3959 19.7567 67.3523 15.6364 72.1446C22.7915 84.5251 36.1724 92.8565 51.5 92.8565L55.975 72.2392L34.5431 60.5717L30.5346 60.572Z" fill="#121149"/>
<path d="M72.4654 60.572C78.1823 63.3959 83.2433 67.3523 87.3636 72.1446C80.2088 84.5251 66.8276 92.8565 51.5 92.8565V68.9626L68.4569 60.5717L72.4654 60.572Z" fill="#366796"/>
<path d="M40.8718 60.572L53.7375 68.9626L51.5 77.5287L34.5433 60.5717L40.8718 60.572Z" fill="#366796"/>
<path d="M62.1281 60.572L51.5 68.9626V77.5287L68.4569 60.5717L62.1281 60.572Z" fill="#5488A8"/>
<path d="M51.5 60.572L53.7375 65.1121L51.5 71.2001L40.8718 60.572H51.5Z" fill="#C2FBFF"/>
<path d="M62.1281 60.572L51.5 71.2001V60.572H62.1281Z" fill="white"/>
</g>
<defs>
<clipPath id="clip0_1_437">
<rect width="103" height="103" fill="white" transform="matrix(-1 0 0 1 103 0)"/>
</clipPath>
</defs>
</svg>
